<svg xmlns:xlink="http://www.w3.org/1999/xlink" xmlns="http://www.w3.org/2000/svg" width="90" height="38.08" role="img" class="ns1-logo"><defs><symbol id="ns1-logo" viewBox="0 0 685 292">
<circle id="Dot" cx="650" cy="250.5" r="33" fill="#DE096A"></circle>
<path id="_1" fill="#211F1F" d="M536 3.5h59v279h-59v-143c0-17 3-73 3-73l-32 21-24-47 53-37z"></path>
<path id="S" fill="#211F1F" d="M292 205c5 4.4 9.2 8.3 13.8 12 12.1 9.7 25.5 16.9 40.9 19.9 12.4 2.5 24.8 3 36.7-2.5 8.4-3.9 13.7-10.5 15-19.8 1.2-8.7-2.5-15.5-8.8-21.2-6.5-5.9-14.1-10-22-13.6-12.1-5.6-24.3-10.8-36.3-16.4-13.2-6.1-25.8-13.3-36.7-23-15.6-13.8-24.2-30.9-25.1-51.9-.9-22.2 6.3-41.2 21.4-57.2 11.6-12.2 26-20.2 42.1-24.8 15.4-4.4 31.4-5.9 47.3-4.4 15.4 1.5 30.1 4.9 44.1 11.5 9.9 4.6 18.9 10.5 26.5 18.5.7.7 1.4 1.5 2 2.2.2.4.4.9.6 1.3l-37.6 44.8c-4.3-4.1-8.1-8.1-12.3-11.5-12.9-10.7-28-15.1-44.6-14-4.5.4-8.8 1.5-12.9 3.4-13.8 6.2-19.9 24-7.4 37.4 3.6 3.9 7.9 7.2 12.5 9.7 10.9 5.8 22 11 33.2 16.1 15.3 7 30.6 13.9 44.2 24 13 9.6 23.2 21.4 28.3 37.1 11 33.8-1.1 69.7-32.7 89.9-12.3 7.7-26 12.9-40.3 15.3-11 2.1-22.1 2.9-33.2 2.6-29.8-1-57.9-8-82.6-25.5-3.8-2.7-7.2-5.8-11.1-9 11.7-17.2 23.2-33.9 35-50.9z"></path>
<path id="N" fill="#211F1F" d="M2 1.5h73s59 115 76 149 17 48 22 48c0 0-3-40.7-3-65.3V1.5h58v280h-72s-43-81-58-111-35-78-37-82-2-7-5-11c0 0 4 60.9 4 85.4v118.6H2V1.5z"></path>
</symbol></defs><title>NS1 Logo</title> <use xlink:href="#ns1-logo"></use></svg>