<?xml version="1.0" encoding="UTF-8" standalone="no"?>
<!-- Created with Inkscape (http://www.inkscape.org/) -->

<svg
   version="1.1"
   id="svg54134"
   xml:space="preserve"
   width="521.33331"
   height="133.33333"
   viewBox="0 0 521.33331 133.33333"
   sodipodi:docname="anynines - Horizontal - Full Color on White.svg"
   inkscape:version="1.1.1 (3bf5ae0d25, 2021-09-20)"
   xmlns:inkscape="http://www.inkscape.org/namespaces/inkscape"
   xmlns:sodipodi="http://sodipodi.sourceforge.net/DTD/sodipodi-0.dtd"
   xmlns="http://www.w3.org/2000/svg"
   xmlns:svg="http://www.w3.org/2000/svg"><defs
     id="defs54138"><clipPath
       clipPathUnits="userSpaceOnUse"
       id="clipPath54150"><path
         d="m 1509.9,463.602 c -31.49,0 -101.32,-2.735 -101.32,-47.793 0,-24.598 26.01,-36.207 48.6,-36.207 40.4,0 78.04,21.179 78.04,62.14 v 21.86 h -25.32 z m 25.32,-103.801 h -1.37 c -22.59,-35.492 -63.65,-49.824 -105.42,-49.824 -62.29,0 -118.43,35.492 -118.43,102.421 0,114.7 139.65,116.739 225.22,116.739 0,36.191 -30.11,59.41 -65.72,59.41 -33.54,0 -61.62,-15.039 -83.51,-39.602 l -54.76,55.981 c 37.64,35.5 92.41,53.246 146.48,53.246 119.81,0 151.98,-60.758 151.98,-171.367 V 318.148 h -94.47 v 41.653 z"
         clip-rule="evenodd"
         id="path54148" /></clipPath><clipPath
       clipPathUnits="userSpaceOnUse"
       id="clipPath54156"><path
         d="M 0,0 H 3910 V 1000 H 0 Z"
         id="path54154" /></clipPath><clipPath
       clipPathUnits="userSpaceOnUse"
       id="clipPath54166"><path
         d="m 1676.89,649.984 h 98.58 v -45.058 h 1.37 c 13.7,25.949 47.23,53.25 97.21,53.25 104.06,0 123.24,-68.274 123.24,-157.028 v -183 h -102.7 v 162.52 c 0,38.219 -0.68,87.383 -53.4,87.383 -53.4,0 -61.61,-41.649 -61.61,-84.668 V 318.148 h -102.69 v 331.836 z"
         clip-rule="evenodd"
         id="path54164" /></clipPath><clipPath
       clipPathUnits="userSpaceOnUse"
       id="clipPath54172"><path
         d="M 0,0 H 3910 V 1000 H 0 Z"
         id="path54170" /></clipPath><clipPath
       clipPathUnits="userSpaceOnUse"
       id="clipPath54182"><path
         d="m 2221.01,264.234 c -27.36,-70.324 -43.12,-109.933 -141.02,-109.933 -25.99,0 -52.01,4.094 -76.66,12.301 l 13.7,83.976 c 15.74,-6.836 30.81,-10.258 47.92,-10.258 46.55,0 54.09,19.809 68.45,55.996 l 7.54,19.122 -145.83,334.546 h 110.9 l 85.57,-219.175 h 1.37 l 73.25,219.175 h 105.42 l -150.61,-385.75 z"
         clip-rule="evenodd"
         id="path54180" /></clipPath><clipPath
       clipPathUnits="userSpaceOnUse"
       id="clipPath54188"><path
         d="M 0,0 H 3910 V 1000 H 0 Z"
         id="path54186" /></clipPath><clipPath
       clipPathUnits="userSpaceOnUse"
       id="clipPath54198"><path
         d="m 2386.37,649.984 h 98.59 v -45.058 h 1.37 c 13.7,25.949 47.25,53.25 97.2,53.25 104.07,0 123.23,-68.274 123.23,-157.028 v -183 h -102.68 v 162.52 c 0,38.219 -0.7,87.383 -53.41,87.383 -53.39,0 -61.6,-41.649 -61.6,-84.668 V 318.148 h -102.7 v 331.836 z"
         clip-rule="evenodd"
         id="path54196" /></clipPath><clipPath
       clipPathUnits="userSpaceOnUse"
       id="clipPath54204"><path
         d="M 0,0 H 3910 V 1000 H 0 Z"
         id="path54202" /></clipPath><clipPath
       clipPathUnits="userSpaceOnUse"
       id="clipPath54214"><path
         d="m 2757.35,318.148 h 102.7 v 331.836 h -102.7 V 318.148 Z"
         id="path54212" /></clipPath><clipPath
       clipPathUnits="userSpaceOnUse"
       id="clipPath54224"><path
         d="m 2912.55,649.984 h 98.6 v -45.058 h 1.38 c 13.69,25.949 47.22,53.25 97.18,53.25 104.06,0 123.25,-68.274 123.25,-157.028 v -183 h -102.68 v 162.52 c 0,38.219 -0.71,87.383 -53.42,87.383 -53.38,0 -61.6,-41.649 -61.6,-84.668 V 318.148 h -102.71 v 331.836 z"
         clip-rule="evenodd"
         id="path54222" /></clipPath><clipPath
       clipPathUnits="userSpaceOnUse"
       id="clipPath54230"><path
         d="M 0,0 H 3910 V 1000 H 0 Z"
         id="path54228" /></clipPath><clipPath
       clipPathUnits="userSpaceOnUse"
       id="clipPath54240"><path
         d="m 3506.26,521.625 c 0.69,34.133 -26.02,62.816 -62.99,62.816 -45.18,0 -69.82,-30.722 -72.57,-62.816 h 135.56 z m 86.94,-146.117 c -32.84,-41.649 -86.94,-65.531 -140.35,-65.531 -102.68,0 -184.83,68.257 -184.83,174.101 0,105.824 82.15,174.098 184.83,174.098 95.87,0 156.09,-68.274 156.09,-174.098 v -32.09 H 3370.7 c 8.24,-38.914 37.67,-64.175 77.39,-64.175 33.52,0 56.12,17.058 73.23,40.285 l 71.88,-52.59 z"
         clip-rule="evenodd"
         id="path54238" /></clipPath><clipPath
       clipPathUnits="userSpaceOnUse"
       id="clipPath54246"><path
         d="M 0,0 H 3910 V 1000 H 0 Z"
         id="path54244" /></clipPath><clipPath
       clipPathUnits="userSpaceOnUse"
       id="clipPath54256"><path
         d="m 3829.82,552.355 c -15.07,18.434 -34.93,27.985 -59.57,27.985 -17.12,0 -37.64,-7.512 -37.64,-27.301 0,-49.156 173.19,-7.516 173.19,-133.824 0,-84.668 -82.17,-109.235 -153.34,-109.235 -46.56,0 -97.92,11.606 -130.73,45.055 l 62.28,68.953 c 19.16,-23.207 41.74,-36.172 72.54,-36.172 23.27,0 46.56,6.122 46.56,23.883 0,53.262 -173.21,8.188 -173.21,134.508 0,77.832 69.83,111.965 139.68,111.965 43.79,0 92.39,-10.918 123.21,-43.692 l -62.97,-62.125 z"
         clip-rule="evenodd"
         id="path54254" /></clipPath><clipPath
       clipPathUnits="userSpaceOnUse"
       id="clipPath54262"><path
         d="M 0,0 H 3910 V 1000 H 0 Z"
         id="path54260" /></clipPath><clipPath
       clipPathUnits="userSpaceOnUse"
       id="clipPath54272"><path
         d="M 500,0 C 223.859,0 0,223.859 0,500 c 0,276.141 223.859,500 500,500 276.141,0 500,-223.859 500,-500 C 1000,223.859 776.141,0 500,0 Z M 400,500.703 c 0,-20.476 3.008,-40.223 8.555,-58.879 h 82.586 c -8.965,17.696 -14.043,37.684 -14.043,58.879 0,72.25 58.73,130.793 131.226,130.793 72.496,0 131.266,-58.543 131.266,-130.793 0,-72.262 -58.77,-130.824 -131.266,-130.824 H 359.523 c -49.738,0 -90.043,40.164 -90.043,89.734 0,49.555 40.305,89.727 90.043,89.727 3.247,43.332 30.297,78.301 30.297,78.301 h -30.297 c -92.71,0 -167.855,-74.895 -167.855,-167.286 0,-92.41 75.145,-167.289 167.855,-167.289 h 248.801 c 38.215,0 73.989,10.278 104.77,28.176 61.914,35.992 103.574,102.867 103.574,179.461 0,114.66 -93.277,207.629 -208.344,207.629 C 493.273,708.332 400,615.363 400,500.703 Z"
         clip-rule="evenodd"
         id="path54270" /></clipPath><clipPath
       clipPathUnits="userSpaceOnUse"
       id="clipPath54278"><path
         d="M 0,0 H 3910 V 1000 H 0 Z"
         id="path54276" /></clipPath></defs><sodipodi:namedview
     id="namedview54136"
     pagecolor="#ffffff"
     bordercolor="#666666"
     borderopacity="1.0"
     inkscape:pageshadow="2"
     inkscape:pageopacity="0.0"
     inkscape:pagecheckerboard="0"
     showgrid="false"
     inkscape:zoom="2.1732737"
     inkscape:cx="260.66666"
     inkscape:cy="66.719621"
     inkscape:window-width="1920"
     inkscape:window-height="1010"
     inkscape:window-x="-6"
     inkscape:window-y="-6"
     inkscape:window-maximized="1"
     inkscape:current-layer="g54140" /><g
     id="g54140"
     inkscape:groupmode="layer"
     inkscape:label="ink_ext_XXXXXX"
     transform="matrix(1.3333333,0,0,-1.3333333,0,133.33333)"><g
       id="g54142"
       transform="scale(0.1)"><g
         id="g54144"><g
           id="g54146"
           clip-path="url(#clipPath54150)"><g
             id="g54152"
             clip-path="url(#clipPath54156)"><path
               d="m 1260,259.977 h 419.691 V 708.172 H 1260 Z"
               style="fill:#e5833b;fill-opacity:1;fill-rule:nonzero;stroke:none"
               id="path54158" /></g></g></g><g
         id="g54160"><g
           id="g54162"
           clip-path="url(#clipPath54166)"><g
             id="g54168"
             clip-path="url(#clipPath54172)"><path
               d="m 1626.89,268.148 h 420.402 V 708.175 H 1626.89 Z"
               style="fill:#e5833b;fill-opacity:1;fill-rule:nonzero;stroke:none"
               id="path54174" /></g></g></g><g
         id="g54176"><g
           id="g54178"
           clip-path="url(#clipPath54182)"><g
             id="g54184"
             clip-path="url(#clipPath54188)"><path
               d="m 1945.11,104.301 h 476.512 V 699.985 H 1945.11 Z"
               style="fill:#e5833b;fill-opacity:1;fill-rule:nonzero;stroke:none"
               id="path54190" /></g></g></g><g
         id="g54192"><g
           id="g54194"
           clip-path="url(#clipPath54198)"><g
             id="g54200"
             clip-path="url(#clipPath54204)"><path
               d="m 2336.37,268.148 h 420.387 V 708.175 H 2336.37 Z"
               style="fill:#e5833b;fill-opacity:1;fill-rule:nonzero;stroke:none"
               id="path54206" /></g></g></g><g
         id="g54208"><g
           id="g54210"
           clip-path="url(#clipPath54214)"><path
             d="m 2707.35,268.148 h 202.699 V 699.984 H 2707.35 Z"
             style="fill:#e5833b;fill-opacity:1;fill-rule:nonzero;stroke:none"
             id="path54216" /></g></g><g
         id="g54218"><g
           id="g54220"
           clip-path="url(#clipPath54224)"><g
             id="g54226"
             clip-path="url(#clipPath54230)"><path
               d="m 2862.55,268.148 h 420.402 V 708.175 H 2862.55 Z"
               style="fill:#e5833b;fill-opacity:1;fill-rule:nonzero;stroke:none"
               id="path54232" /></g></g></g><g
         id="g54234"><g
           id="g54236"
           clip-path="url(#clipPath54240)"><g
             id="g54242"
             clip-path="url(#clipPath54246)"><path
               d="m 3218.02,259.977 h 440.918 V 708.176 H 3218.02 Z"
               style="fill:#e5833b;fill-opacity:1;fill-rule:nonzero;stroke:none"
               id="path54248" /></g></g></g><g
         id="g54250"><g
           id="g54252"
           clip-path="url(#clipPath54256)"><g
             id="g54258"
             clip-path="url(#clipPath54262)"><path
               d="m 3571.73,259.98 h 384.078 V 708.171 H 3571.73 Z"
               style="fill:#e5833b;fill-opacity:1;fill-rule:nonzero;stroke:none"
               id="path54264" /></g></g></g><g
         id="g54266"><g
           id="g54268"
           clip-path="url(#clipPath54272)"><g
             id="g54274"
             clip-path="url(#clipPath54278)"><path
               d="M -50,-50 H 1050 V 1050 H -50 Z"
               style="fill:#e5833b;fill-opacity:1;fill-rule:nonzero;stroke:none"
               id="path54280" /></g></g></g></g></g></svg>
