<?xml version="1.0" encoding="UTF-8" standalone="no"?>
<!-- Created with Inkscape (http://www.inkscape.org/) -->

<svg
   version="1.1"
   id="svg3939"
   xml:space="preserve"
   width="1905.9467"
   height="537.33331"
   viewBox="0 0 1905.9467 537.33331"
   sodipodi:docname="Futurewei_Logo_EPS_rgb.svg"
   inkscape:version="1.1.1 (3bf5ae0d25, 2021-09-20)"
   xmlns:inkscape="http://www.inkscape.org/namespaces/inkscape"
   xmlns:sodipodi="http://sodipodi.sourceforge.net/DTD/sodipodi-0.dtd"
   xmlns="http://www.w3.org/2000/svg"
   xmlns:svg="http://www.w3.org/2000/svg"><defs
     id="defs3943" /><sodipodi:namedview
     id="namedview3941"
     pagecolor="#ffffff"
     bordercolor="#666666"
     borderopacity="1.0"
     inkscape:pageshadow="2"
     inkscape:pageopacity="0.0"
     inkscape:pagecheckerboard="0"
     showgrid="false"
     inkscape:zoom="0.59445525"
     inkscape:cx="952.97333"
     inkscape:cy="268.31288"
     inkscape:window-width="1920"
     inkscape:window-height="1001"
     inkscape:window-x="-7"
     inkscape:window-y="-7"
     inkscape:window-maximized="1"
     inkscape:current-layer="g3945" /><g
     id="g3945"
     inkscape:groupmode="layer"
     inkscape:label="ink_ext_XXXXXX"
     transform="matrix(1.3333333,0,0,-1.3333333,0,537.33333)"><g
       id="g3947"
       transform="scale(0.1)"><path
         d="m 4240.17,2807.16 h 867.69 v -279.25 h -547.9 v -313.32 h 473.26 v -275.07 h -473.26 v -560.69 h -319.79 v 1428.33"
         style="fill:#ed1d24;fill-opacity:1;fill-rule:nonzero;stroke:none"
         id="path3949" /><path
         d="m 5239.92,1881.96 v 925.2 h 319.79 v -920.92 c 0,-176.97 102.32,-251.56 215.31,-251.56 110.84,0 213.17,74.59 213.17,251.56 v 920.92 h 319.79 v -925.2 c 0,-345.38 -223.88,-528.73 -532.96,-528.73 -311.27,0 -535.1,183.35 -535.1,528.73"
         style="fill:#ed1d24;fill-opacity:1;fill-rule:nonzero;stroke:none"
         id="path3951" /><path
         d="M 7117.86,2525.82 V 1378.83 h -319.79 v 1146.99 h -351.71 v 281.34 h 1023.25 v -281.34 h -351.75"
         style="fill:#ed1d24;fill-opacity:1;fill-rule:nonzero;stroke:none"
         id="path3953" /><path
         d="m 7610.23,1881.96 v 925.2 h 319.78 v -920.92 c 0,-176.97 102.39,-251.56 215.33,-251.56 110.84,0 213.22,74.59 213.22,251.56 v 920.92 h 319.78 v -925.2 c 0,-345.38 -223.87,-528.73 -533,-528.73 -311.23,0 -535.11,183.35 -535.11,528.73"
         style="fill:#ed1d24;fill-opacity:1;fill-rule:nonzero;stroke:none"
         id="path3955" /><path
         d="m 9164.25,2146.37 h 217.4 c 49.11,59.66 78.88,134.25 78.88,213.13 0,85.25 -44.72,168.41 -144.9,168.41 h -151.38 z m 437,-181.26 285.73,-586.28 h -364.6 l -225.97,492.48 h -132.16 v -492.48 h -319.78 v 1428.33 h 479.63 c 287.81,0 460.5,-170.5 460.5,-441.29 0,-174.78 -100.19,-309.13 -183.35,-400.76"
         style="fill:#ed1d24;fill-opacity:1;fill-rule:nonzero;stroke:none"
         id="path3957" /><path
         d="m 9995.53,2807.16 h 876.17 v -279.25 h -556.4 v -281.34 h 473.3 v -275.08 h -473.3 v -313.41 h 560.7 v -279.25 h -880.47 v 1428.33"
         style="fill:#ed1d24;fill-opacity:1;fill-rule:nonzero;stroke:none"
         id="path3959" /><path
         d="m 12246.9,1980.06 19.2,-196.2 h 10.6 l 19.2,215.32 153.5,807.98 h 326.2 l -315.5,-1441.08 h -371 l -176.9,859.17 -10.7,170.5 h -19.2 l -14.9,-170.5 -179.1,-859.17 h -364.5 l -317.7,1441.08 h 341.1 l 155.6,-825.01 15,-198.29 h 14.9 l 14.9,196.2 172.7,827.1 h 353.9 l 172.7,-827.1"
         style="fill:#211816;fill-opacity:1;fill-rule:nonzero;stroke:none"
         id="path3961" /><path
         d="m 12907.5,2807.16 h 876.2 v -279.25 h -556.4 v -281.34 h 473.3 v -275.08 h -473.3 v -313.41 h 560.7 v -279.25 h -880.5 v 1428.33"
         style="fill:#211816;fill-opacity:1;fill-rule:nonzero;stroke:none"
         id="path3963" /><path
         d="m 13966.9,1378.83 v 1428.33 h 315.3 V 1378.83 h -315.3"
         style="fill:#211816;fill-opacity:1;fill-rule:nonzero;stroke:none"
         id="path3965" /><path
         d="m 9315.71,894.801 -5.76,-32.672 c -0.93,-7.68 -3.83,-11.52 -10.58,-11.52 h -194.12 l -100.93,-639.16 c -0.93,-5.758 -4.77,-9.597 -11.51,-9.597 h -37.5 c -6.74,0 -9.59,3.839 -8.66,9.597 l 100.92,639.16 H 8856.3 c -6.69,0 -9.59,2.852 -7.67,10.532 l 4.82,32.679 c 0.94,7.719 3.84,11.559 11.51,11.559 h 442.14 c 6.69,0 9.59,-3.84 8.61,-10.578"
         style="fill:#211816;fill-opacity:1;fill-rule:nonzero;stroke:none"
         id="path3967" /><path
         d="m 9604.9,578.59 c 0,71.148 -42.32,108.609 -115.35,108.609 -82.66,0 -144.18,-49.961 -159.53,-147.051 l -8.66,-50.918 h 270.05 l 8.66,48.02 c 2.91,14.422 4.83,28.84 4.83,41.34 z m 53.83,6.742 c 0,-16.344 -2.91,-34.594 -5.81,-51.91 l -10.57,-66.281 c -1.93,-14.43 -10.54,-22.153 -26.87,-22.153 h -300.86 l -8.61,-52.847 c -1.91,-13.43 -3.89,-26.922 -3.89,-39.422 0,-74 42.32,-111.449 116.33,-111.449 78.78,0 119.18,32.671 148.95,80.699 4.82,7.73 10.58,8.66 16.33,4.82 l 24.02,-13.43 c 7.73,-4.828 6.75,-10.578 2.91,-17.328 -36.52,-61.5 -102.85,-103.769 -194.13,-103.769 -110.52,0 -169.17,59.59 -169.17,154.707 0,13.492 1.91,26.91 3.84,41.332 l 24.99,157.621 c 18.26,114.348 99.01,191.269 215.28,191.269 103.78,0 167.26,-60.582 167.26,-151.859"
         style="fill:#211816;fill-opacity:1;fill-rule:nonzero;stroke:none"
         id="path3969" /><path
         d="m 10162.1,617.07 c 2.9,-11.558 0,-15.398 -6.7,-17.32 l -31.7,-10.578 c -6.8,-1.922 -10.6,0.976 -12.5,6.75 -12.5,52.84 -40.4,89.348 -108.6,89.348 -81.7,0 -137.45,-49.008 -154.77,-152.79 l -21.12,-140.339 c -2.9,-14.422 -3.88,-26.922 -3.88,-38.43 0,-74.012 40.4,-110.52 108.65,-110.52 69.22,0 112.42,32.68 140.32,91.278 3.8,7.73 7.6,9.652 14.4,6.742 l 29.8,-12.5 c 7.7,-2.852 7.7,-8.66 3.8,-14.422 -34.5,-74.008 -96.1,-122.027 -192.21,-122.027 -103.78,0 -161.45,58.609 -161.45,154.707 0,13.492 0.98,27.902 3.83,42.312 l 24.08,149.899 c 19.19,119.179 91.28,198.011 207.55,198.011 102.8,0 142.3,-53.832 160.5,-120.121"
         style="fill:#211816;fill-opacity:1;fill-rule:nonzero;stroke:none"
         id="path3971" /><path
         d="m 10667.5,604.57 c 0,-12.488 -1,-26.922 -3.9,-40.398 l -55.7,-352.723 c -1,-6.699 -4.8,-9.597 -11.5,-9.597 h -33.7 c -7.7,0 -11.5,3.839 -9.6,9.597 l 53.8,342.141 c 2.9,14.422 3.9,28.84 3.9,41.34 0,57.672 -26.9,90.34 -88.4,90.34 -59.6,0 -130.7,-51.86 -169.2,-125.872 l -54.8,-347.949 c -0.9,-5.758 -4.8,-9.597 -11.5,-9.597 h -34.6 c -6.7,0 -9.6,3.839 -8.7,9.597 l 112.5,708.34 c 1,5.762 4.8,9.602 11.5,9.602 h 34.6 c 6.7,0 9.6,-3.84 8.7,-9.602 l -45.2,-281.609 c 42.3,55.75 104.7,99.011 173.9,99.011 83.7,0 127.9,-53.832 127.9,-132.621"
         style="fill:#211816;fill-opacity:1;fill-rule:nonzero;stroke:none"
         id="path3973" /><path
         d="m 11203.6,604.57 c 0,-12.488 -0.9,-26.922 -3.9,-40.398 L 11144,211.449 c -0.9,-6.699 -4.8,-9.597 -11.5,-9.597 h -33.7 c -7.7,0 -11.5,3.839 -9.6,9.597 l 53.9,342.141 c 2.8,14.422 3.8,28.84 3.8,41.34 0,57.672 -26.9,90.34 -88.4,90.34 -59.6,0 -129.8,-50.93 -168.2,-124.938 l -55.8,-348.883 c -0.9,-6.699 -4.8,-9.597 -11.5,-9.597 h -33.7 c -7.6,0 -10.5,3.839 -9.5,9.597 l 80.7,506.5 c 0.9,5.75 4.8,9.653 11.5,9.653 h 33.6 c 6.8,0 9.7,-3.903 8.7,-9.653 l -12.5,-80.711 c 41.3,56.692 104.8,99.953 173.9,99.953 83.7,0 127.9,-53.832 127.9,-132.621"
         style="fill:#211816;fill-opacity:1;fill-rule:nonzero;stroke:none"
         id="path3975" /><path
         d="m 11407.1,535.34 -22,-143.199 c -2,-11.52 -3.9,-24.012 -3.9,-38.43 0,-72.09 46.1,-110.52 121.1,-110.52 86.5,0 149.9,48.028 165.3,148.02 l 22.1,138.371 c 2.9,14.406 4.8,30.75 4.8,44.238 0,72.039 -47.1,111.45 -121.1,111.45 -87.4,0 -149.9,-49.008 -166.3,-149.93 z m 343.2,45.172 c 0,-14.422 -1.9,-30.762 -3.9,-43.262 l -24,-151.852 c -19.2,-121.046 -97.1,-193.136 -223,-193.136 -110.5,0 -173.9,61.508 -173.9,154.707 0,14.41 1.9,28.832 3.8,43.25 l 25,153.769 c 18.3,121.114 95.2,193.203 221,193.203 110.6,0 175,-63.429 175,-156.679"
         style="fill:#211816;fill-opacity:1;fill-rule:nonzero;stroke:none"
         id="path3977" /><path
         d="m 12022,919.789 -112.4,-708.34 c -0.9,-5.758 -4.8,-9.597 -11.5,-9.597 h -34.6 c -6.7,0 -9.7,3.839 -8.7,9.597 l 112.5,708.34 c 1,5.762 4.8,9.602 11.5,9.602 h 34.6 c 6.7,0 9.6,-3.84 8.6,-9.602"
         style="fill:#211816;fill-opacity:1;fill-rule:nonzero;stroke:none"
         id="path3979" /><path
         d="m 12176.7,535.34 -22.1,-143.199 c -1.9,-11.52 -3.8,-24.012 -3.8,-38.43 0,-72.09 46.1,-110.52 121.1,-110.52 86.5,0 149.9,48.028 165.3,148.02 l 22,138.371 c 3,14.406 4.9,30.75 4.9,44.238 0,72.039 -47.1,111.45 -121.1,111.45 -87.5,0 -150,-49.008 -166.3,-149.93 z m 343.1,45.172 c 0,-14.422 -1.9,-30.762 -3.8,-43.262 l -24,-151.852 c -19.3,-121.046 -97.1,-193.136 -223,-193.136 -110.6,0 -174,61.508 -174,154.707 0,14.41 1.9,28.832 3.8,43.25 l 25,153.769 c 18.3,121.114 95.2,193.203 221.1,193.203 110.5,0 174.9,-63.429 174.9,-156.679"
         style="fill:#211816;fill-opacity:1;fill-rule:nonzero;stroke:none"
         id="path3981" /><path
         d="m 13008.8,651.672 c -40.4,17.258 -85.5,29.758 -135.5,29.758 -88.4,0 -140.3,-52.852 -154.7,-143.192 l -23.1,-142.269 c -2.9,-17.258 -3.9,-31.68 -3.9,-46.098 0,-68.25 31.8,-102.84 91.4,-102.84 62.4,0 133.5,47.09 185.4,144.18 z m 59.6,17.258 -72.1,-453.641 C 12972.3,67.3203 12881,0 12768.6,0 c -76,0 -132.7,30.7617 -167.3,70.1719 -4.8,4.8281 -4.8,10.5781 0,15.3984 l 18.3,22.1017 c 5.7,5.758 11.5,5.758 16.3,0 C 12662.8,76.9102 12707,50 12766.6,50 c 85.6,0 154.7,45.1719 174.9,170.109 l 14.4,94.18 c -40.3,-62.437 -108.6,-118.187 -186.4,-118.187 -85.5,0 -133.6,55.75 -133.6,146.097 0,14.422 1,30.75 3.8,48.02 l 24.1,150.922 c 18.2,117.218 89.3,190.289 208.5,190.289 68.3,0 135.6,-20.168 188.4,-44.231 8.7,-4.777 9.6,-8.621 7.7,-18.269"
         style="fill:#211816;fill-opacity:1;fill-rule:nonzero;stroke:none"
         id="path3983" /><path
         d="m 13336.4,917.879 -15.4,-93.25 c -1,-6.688 -5.8,-10.578 -12.5,-10.578 h -33.7 c -6.6,0 -10.5,3.89 -8.6,10.578 l 14.4,93.25 c 2,7.672 5.8,11.512 13.5,11.512 h 32.7 c 7.6,0 10.5,-3.84 9.6,-11.512 z m -31.7,-199.93 -80.8,-506.5 c -0.9,-5.758 -4.8,-9.597 -11.5,-9.597 h -34.6 c -6.7,0 -9.6,3.839 -8.7,9.597 l 80.7,506.5 c 1,5.75 4.9,9.653 11.6,9.653 h 34.6 c 6.7,0 9.6,-3.903 8.7,-9.653"
         style="fill:#211816;fill-opacity:1;fill-rule:nonzero;stroke:none"
         id="path3985" /><path
         d="m 13766.9,578.59 c 0,71.148 -42.3,108.609 -115.4,108.609 -82.6,0 -144.2,-49.961 -159.5,-147.051 l -8.7,-50.918 h 270.1 l 8.6,48.02 c 3,14.422 4.9,28.84 4.9,41.34 z m 53.8,6.742 c 0,-16.344 -2.9,-34.594 -5.8,-51.91 l -10.5,-66.281 c -2,-14.43 -10.6,-22.153 -26.9,-22.153 h -300.9 l -8.6,-52.847 c -2,-13.43 -3.9,-26.922 -3.9,-39.422 0,-74 42.3,-111.449 116.3,-111.449 78.8,0 119.2,32.671 149,80.699 4.8,7.73 10.6,8.66 16.3,4.82 l 24,-13.43 c 7.8,-4.828 6.8,-10.578 2.9,-17.328 -36.5,-61.5 -102.8,-103.769 -194.1,-103.769 -110.5,0 -169.2,59.59 -169.2,154.707 0,13.492 1.9,26.91 3.9,41.332 l 25,157.621 c 18.2,114.348 99,191.269 215.3,191.269 103.7,0 167.2,-60.582 167.2,-151.859"
         style="fill:#211816;fill-opacity:1;fill-rule:nonzero;stroke:none"
         id="path3987" /><path
         d="m 14294.3,620.91 c 1,-8.672 0,-12.5 -9.6,-14.422 l -25,-7.718 c -8.6,-2.848 -12.5,0 -14.4,5.8 -8.7,57.629 -46.1,83.602 -105.7,83.602 -97.1,0 -127.9,-55.75 -127.9,-96.09 0,-49.023 48.1,-69.242 112.5,-95.184 77.9,-31.687 139.4,-65.339 139.4,-144.179 0,-74 -52.9,-161.438 -187.5,-161.438 -95.1,0 -161.4,48.071 -172,121.09 -1.9,9.598 0,13.488 7.7,15.41 l 26.9,8.598 c 8.7,2.91 12.5,0.992 14.4,-6.68 6.8,-56.738 54.8,-89.418 123,-89.418 97.1,0 132.6,59.59 132.6,107.68 0,54.758 -47,74 -118.1,102.84 -77.9,32.668 -133.7,63.429 -133.7,139.347 0,66.282 51,146.051 179.8,146.051 89.4,0 147,-45.168 157.6,-115.289"
         style="fill:#211816;fill-opacity:1;fill-rule:nonzero;stroke:none"
         id="path3989" /><path
         d="m 3256.84,906.91 c 89.14,-51.449 119.68,-165.441 68.22,-254.57 -51.47,-89.129 -165.44,-119.68 -254.58,-68.211 -89.13,51.461 -119.68,165.441 -68.21,254.57 51.46,89.141 165.44,119.68 254.57,68.211"
         style="fill:#ed1d24;fill-opacity:1;fill-rule:nonzero;stroke:none"
         id="path3991" /><path
         d="m 3482.04,1448.86 c 80.22,-46.31 107.71,-148.89 61.39,-229.12 -46.32,-80.21 -148.89,-107.7 -229.12,-61.38 -80.22,46.32 -107.7,148.89 -61.39,229.12 46.32,80.21 148.9,107.7 229.12,61.38"
         style="fill:#ed1d24;fill-opacity:1;fill-rule:nonzero;stroke:none"
         id="path3993" /><path
         d="m 3546.07,1978.96 c 72.2,-41.68 96.94,-134 55.25,-206.2 -41.68,-72.2 -134,-96.93 -206.2,-55.25 -72.2,41.69 -96.94,134 -55.25,206.21 41.68,72.2 134,96.93 206.2,55.24"
         style="fill:#ed1d24;fill-opacity:1;fill-rule:nonzero;stroke:none"
         id="path3995" /><path
         d="m 3409.04,2471.17 c 64.97,-37.52 87.24,-120.6 49.72,-185.58 -37.52,-64.98 -120.6,-87.24 -185.58,-49.73 -64.98,37.52 -87.24,120.61 -49.73,185.59 37.52,64.97 120.61,87.24 185.59,49.72"
         style="fill:#ed1d24;fill-opacity:1;fill-rule:nonzero;stroke:none"
         id="path3997" /><path
         d="m 3137.08,2810.31 c 58.48,-33.77 78.52,-108.55 44.76,-167.03 -33.77,-58.48 -108.55,-78.52 -167.03,-44.76 -58.48,33.77 -78.52,108.55 -44.76,167.03 33.77,58.48 108.55,78.52 167.03,44.76"
         style="fill:#ed1d24;fill-opacity:1;fill-rule:nonzero;stroke:none"
         id="path3999" /><path
         d="m 2796.08,3041.94 c 52.63,-30.39 70.66,-97.69 40.28,-150.33 -30.39,-52.63 -97.69,-70.67 -150.33,-40.28 -52.63,30.39 -70.66,97.69 -40.28,150.33 30.39,52.63 97.69,70.66 150.33,40.28"
         style="fill:#ed1d24;fill-opacity:1;fill-rule:nonzero;stroke:none"
         id="path4001" /><path
         d="m 2448,3140.39 c 47.37,-27.35 63.6,-87.92 36.25,-135.29 -27.35,-47.37 -87.92,-63.6 -135.29,-36.25 -47.37,27.35 -63.6,87.92 -36.26,135.29 27.36,47.37 87.93,63.6 135.3,36.25"
         style="fill:#ed1d24;fill-opacity:1;fill-rule:nonzero;stroke:none"
         id="path4003" /><path
         d="m 2117.6,3080.02 c 42.63,-24.62 57.24,-79.13 32.62,-121.77 -24.61,-42.63 -79.13,-57.24 -121.76,-32.62 -42.64,24.61 -57.24,79.13 -32.63,121.76 24.62,42.63 79.13,57.24 121.77,32.63"
         style="fill:#ed1d24;fill-opacity:1;fill-rule:nonzero;stroke:none"
         id="path4005" /><path
         d="m 1833.95,2927.44 c 38.37,-22.15 51.52,-71.21 29.36,-109.58 -22.15,-38.37 -71.21,-51.51 -109.58,-29.37 -38.37,22.16 -51.52,71.22 -29.37,109.59 22.16,38.37 71.22,51.52 109.59,29.36"
         style="fill:#ed1d24;fill-opacity:1;fill-rule:nonzero;stroke:none"
         id="path4007" /><path
         d="m 1645.5,2705.84 c 34.53,-19.94 46.36,-64.09 26.43,-98.63 -19.94,-34.53 -64.1,-46.36 -98.63,-26.43 -34.53,19.94 -46.36,64.1 -26.43,98.63 19.94,34.53 64.1,46.37 98.63,26.43"
         style="fill:#ed1d24;fill-opacity:1;fill-rule:nonzero;stroke:none"
         id="path4009" /><path
         d="m 1638.87,2411.39 c 31.08,-17.95 41.72,-57.69 23.78,-88.77 -17.94,-31.07 -57.69,-41.72 -88.76,-23.78 -31.08,17.94 -41.73,57.69 -23.79,88.77 17.95,31.07 57.69,41.72 88.77,23.78"
         style="fill:#ed1d24;fill-opacity:1;fill-rule:nonzero;stroke:none"
         id="path4011" /><path
         d="m 2388.88,3843.65 c 0,102.92 83.43,186.36 186.35,186.36 102.93,0 186.37,-83.44 186.37,-186.36 0,-102.92 -83.44,-186.36 -186.37,-186.36 -102.92,0 -186.35,83.44 -186.35,186.36"
         style="fill:#ed1d24;fill-opacity:1;fill-rule:nonzero;stroke:none"
         id="path4013" /><path
         d="m 1806.93,3767.7 c 0,92.63 75.1,167.72 167.73,167.72 92.63,0 167.73,-75.09 167.73,-167.72 0,-92.63 -75.1,-167.73 -167.73,-167.73 -92.63,0 -167.73,75.1 -167.73,167.73"
         style="fill:#ed1d24;fill-opacity:1;fill-rule:nonzero;stroke:none"
         id="path4015" /><path
         d="m 1315.84,3558.1 c 0,83.37 67.58,150.95 150.95,150.95 83.37,0 150.95,-67.58 150.95,-150.95 0,-83.37 -67.58,-150.95 -150.95,-150.95 -83.37,0 -150.95,67.58 -150.95,150.95"
         style="fill:#ed1d24;fill-opacity:1;fill-rule:nonzero;stroke:none"
         id="path4017" /><path
         d="m 958.09,3193.32 c 0,75.03 60.83,135.86 135.86,135.86 75.03,0 135.86,-60.83 135.86,-135.86 0,-75.03 -60.83,-135.86 -135.86,-135.86 -75.03,0 -135.86,60.83 -135.86,135.86"
         style="fill:#ed1d24;fill-opacity:1;fill-rule:nonzero;stroke:none"
         id="path4019" /><path
         d="m 800.371,2788.23 c 0,67.53 54.746,122.28 122.274,122.28 67.531,0 122.275,-54.75 122.275,-122.28 0,-67.52 -54.744,-122.27 -122.275,-122.27 -67.528,0 -122.274,54.75 -122.274,122.27"
         style="fill:#ed1d24;fill-opacity:1;fill-rule:nonzero;stroke:none"
         id="path4021" /><path
         d="m 770.277,2377.1 c 0,60.78 49.27,110.05 110.043,110.05 60.778,0 110.043,-49.27 110.043,-110.05 0,-60.77 -49.265,-110.04 -110.043,-110.04 -60.773,0 -110.043,49.27 -110.043,110.04"
         style="fill:#ed1d24;fill-opacity:1;fill-rule:nonzero;stroke:none"
         id="path4023" /><path
         d="m 859.051,2026.43 c 0,54.7 44.344,99.04 99.039,99.04 54.7,0 99.04,-44.34 99.04,-99.04 0,-54.69 -44.34,-99.04 -99.04,-99.04 -54.695,0 -99.039,44.35 -99.039,99.04"
         style="fill:#ed1d24;fill-opacity:1;fill-rule:nonzero;stroke:none"
         id="path4025" /><path
         d="m 1076.54,1770.49 c 0,49.22 39.9,89.13 89.13,89.13 49.23,0 89.14,-39.91 89.14,-89.13 0,-49.23 -39.91,-89.14 -89.14,-89.14 -49.23,0 -89.13,39.91 -89.13,89.14"
         style="fill:#ed1d24;fill-opacity:1;fill-rule:nonzero;stroke:none"
         id="path4027" /><path
         d="m 1350.49,1601.12 c 0,44.31 35.92,80.23 80.22,80.23 44.31,0 80.23,-35.92 80.23,-80.23 0,-44.31 -35.92,-80.22 -80.23,-80.22 -44.3,0 -80.22,35.91 -80.22,80.22"
         style="fill:#ed1d24;fill-opacity:1;fill-rule:nonzero;stroke:none"
         id="path4029" /><path
         d="m 1636.63,1548.73 c 0,39.87 32.33,72.2 72.2,72.2 39.88,0 72.2,-32.33 72.2,-72.2 0,-39.88 -32.32,-72.21 -72.2,-72.21 -39.87,0 -72.2,32.33 -72.2,72.21"
         style="fill:#ed1d24;fill-opacity:1;fill-rule:nonzero;stroke:none"
         id="path4031" /><path
         d="m 1894.95,1690.2 c 0,35.89 29.09,64.98 64.98,64.98 35.88,0 64.98,-29.09 64.98,-64.98 0,-35.89 -29.1,-64.98 -64.98,-64.98 -35.89,0 -64.98,29.09 -64.98,64.98"
         style="fill:#ed1d24;fill-opacity:1;fill-rule:nonzero;stroke:none"
         id="path4033" /><path
         d="M 279.574,1623.6 C 190.438,1572.14 76.4609,1602.67 25,1691.81 c -51.4648,89.13 -20.92578,203.12 68.2109,254.57 89.1371,51.47 203.1091,20.93 254.5741,-68.21 51.461,-89.13 20.926,-203.1 -68.211,-254.57"
         style="fill:#ed1d24;fill-opacity:1;fill-rule:nonzero;stroke:none"
         id="path4035" /><path
         d="m 636.316,1157.6 c -80.218,-46.31 -182.8,-18.83 -229.117,61.39 -46.316,80.23 -18.828,182.8 61.395,229.12 80.219,46.31 182.801,18.83 229.117,-61.39 46.316,-80.23 18.824,-182.81 -61.395,-229.12"
         style="fill:#ed1d24;fill-opacity:1;fill-rule:nonzero;stroke:none"
         id="path4037" /><path
         d="m 1063.38,837.102 c -72.2,-41.692 -164.521,-16.961 -206.204,55.25 -41.684,72.199 -16.946,164.518 55.254,206.198 72.199,41.69 164.52,16.95 206.21,-55.25 41.68,-72.198 16.94,-164.519 -55.26,-206.198"
         style="fill:#ed1d24;fill-opacity:1;fill-rule:nonzero;stroke:none"
         id="path4039" /><path
         d="m 1558.16,709.672 c -64.98,-37.512 -148.06,-15.262 -185.58,49.719 -37.52,64.98 -15.25,148.078 49.72,185.589 64.98,37.52 148.07,15.25 185.59,-49.73 37.52,-64.98 15.25,-148.059 -49.73,-185.578"
         style="fill:#ed1d24;fill-opacity:1;fill-rule:nonzero;stroke:none"
         id="path4041" /><path
         d="m 1987.84,775.621 c -58.49,-33.762 -133.26,-13.73 -167.03,44.758 -33.76,58.48 -13.73,133.262 44.76,167.019 58.48,33.772 133.26,13.732 167.02,-44.757 33.77,-58.469 13.73,-133.262 -44.75,-167.02"
         style="fill:#ed1d24;fill-opacity:1;fill-rule:nonzero;stroke:none"
         id="path4043" /><path
         d="M 2358.94,955.121 C 2306.3,924.73 2239,942.77 2208.61,995.41 c -30.38,52.62 -12.35,119.93 40.28,150.32 52.64,30.39 119.94,12.35 150.33,-40.28 30.38,-52.63 12.35,-119.93 -40.28,-150.329"
         style="fill:#ed1d24;fill-opacity:1;fill-rule:nonzero;stroke:none"
         id="path4045" /><path
         d="m 2618.24,1207.34 c -47.37,-27.34 -107.94,-11.11 -135.29,36.25 -27.35,47.37 -11.12,107.95 36.25,135.29 47.37,27.36 107.94,11.13 135.29,-36.25 27.35,-47.37 11.12,-107.93 -36.25,-135.29"
         style="fill:#ed1d24;fill-opacity:1;fill-rule:nonzero;stroke:none"
         id="path4047" /><path
         d="m 2731.16,1523.67 c -42.64,-24.62 -97.15,-10.01 -121.77,32.63 -24.61,42.62 -10,97.14 32.63,121.75 42.63,24.61 97.15,10.01 121.76,-32.62 24.62,-42.64 10.01,-97.15 -32.62,-121.76"
         style="fill:#ed1d24;fill-opacity:1;fill-rule:nonzero;stroke:none"
         id="path4049" /><path
         d="m 2740.85,1845.59 c -38.37,-22.15 -87.43,-9 -109.59,29.37 -22.15,38.37 -9.01,87.43 29.37,109.59 38.37,22.15 87.43,9 109.58,-29.37 22.16,-38.37 9.01,-87.43 -29.36,-109.59"
         style="fill:#ed1d24;fill-opacity:1;fill-rule:nonzero;stroke:none"
         id="path4051" /><path
         d="m 2643.16,2119.6 c -34.53,-19.93 -78.69,-8.1 -98.63,26.43 -19.94,34.53 -8.11,78.69 26.43,98.63 34.53,19.93 78.69,8.1 98.62,-26.43 19.94,-34.54 8.11,-78.69 -26.42,-98.63"
         style="fill:#ed1d24;fill-opacity:1;fill-rule:nonzero;stroke:none"
         id="path4053" /><path
         d="m 2391.47,2272.57 c -31.08,-17.94 -70.82,-7.29 -88.76,23.79 -17.95,31.07 -7.3,70.82 23.78,88.76 31.08,17.94 70.82,7.29 88.77,-23.78 17.94,-31.08 7.29,-70.82 -23.79,-88.77"
         style="fill:#ed1d24;fill-opacity:1;fill-rule:nonzero;stroke:none"
         id="path4055" /></g></g></svg>
